<?xml version="1.0" encoding="UTF-8" standalone="no"?>
<!-- Created with Inkscape (http://www.inkscape.org/) -->

<svg
   xmlns:dc="http://purl.org/dc/elements/1.1/"
   xmlns:cc="http://creativecommons.org/ns#"
   xmlns:rdf="http://www.w3.org/1999/02/22-rdf-syntax-ns#"
   xmlns:svg="http://www.w3.org/2000/svg"
   xmlns="http://www.w3.org/2000/svg"
   xmlns:xlink="http://www.w3.org/1999/xlink"
   xmlns:sodipodi="http://sodipodi.sourceforge.net/DTD/sodipodi-0.dtd"
   xmlns:inkscape="http://www.inkscape.org/namespaces/inkscape"
   id="svg3359"
   version="1.1"
   inkscape:version="0.47 r22583"
   width="30"
   height="30"
   sodipodi:docname="d1.svg">
  <metadata
     id="metadata3365">
    <rdf:RDF>
      <cc:Work
         rdf:about="">
        <dc:format>image/svg+xml</dc:format>
        <dc:type
           rdf:resource="http://purl.org/dc/dcmitype/StillImage" />
        <dc:title></dc:title>
      </cc:Work>
    </rdf:RDF>
  </metadata>
  <defs
     id="defs3363">
    <inkscape:perspective
       sodipodi:type="inkscape:persp3d"
       inkscape:vp_x="0 : 0.5 : 1"
       inkscape:vp_y="0 : 1000 : 0"
       inkscape:vp_z="1 : 0.5 : 1"
       inkscape:persp3d-origin="0.5 : 0.33333333 : 1"
       id="perspective3367" />
    <inkscape:perspective
       id="perspective3526"
       inkscape:persp3d-origin="0.5 : 0.33333333 : 1"
       inkscape:vp_z="1 : 0.5 : 1"
       inkscape:vp_y="0 : 1000 : 0"
       inkscape:vp_x="0 : 0.5 : 1"
       sodipodi:type="inkscape:persp3d" />
    <filter
       color-interpolation-filters="sRGB"
       inkscape:collect="always"
       id="filter6249">
      <feGaussianBlur
         inkscape:collect="always"
         stdDeviation="0.075"
         id="feGaussianBlur6251" />
    </filter>
    <filter
       color-interpolation-filters="sRGB"
       inkscape:collect="always"
       id="filter6253">
      <feGaussianBlur
         inkscape:collect="always"
         stdDeviation="0.022499956"
         id="feGaussianBlur6255" />
    </filter>
    <filter
       color-interpolation-filters="sRGB"
       inkscape:collect="always"
       id="filter6257">
      <feGaussianBlur
         inkscape:collect="always"
         stdDeviation="0.049999956"
         id="feGaussianBlur6259" />
    </filter>
    <filter
       color-interpolation-filters="sRGB"
       inkscape:collect="always"
       id="filter6261">
      <feGaussianBlur
         inkscape:collect="always"
         stdDeviation="0.069222349"
         id="feGaussianBlur6263" />
    </filter>
    <radialGradient
       inkscape:collect="always"
       xlink:href="#linearGradient4856"
       id="radialGradient6167"
       cx="13.53125"
       cy="1046.3309"
       fx="13.53125"
       fy="1046.3309"
       r="7"
       gradientTransform="matrix(0.8032802,0,0,0.11475332,3,924.49779)"
       gradientUnits="userSpaceOnUse" />
    <linearGradient
       id="linearGradient4856">
      <stop
         id="stop4858"
         offset="0"
         style="stop-color:#000000;stop-opacity:1" />
      <stop
         id="stop4860"
         offset="1"
         style="stop-color:#8e8e8e;stop-opacity:1" />
    </linearGradient>
    <linearGradient
       inkscape:collect="always"
       xlink:href="#linearGradient3755-3"
       id="linearGradient6157"
       x1="8.53125"
       y1="1046.3309"
       x2="18.53125"
       y2="1046.3309"
       gradientUnits="userSpaceOnUse"
       gradientTransform="matrix(0.8032802,0,0,0.8032802,3,204.07082)" />
    <linearGradient
       id="linearGradient3755-3">
      <stop
         style="stop-color:#c8c8c8;stop-opacity:1;"
         offset="0"
         id="stop3757-6" />
      <stop
         style="stop-color:#ffffff;stop-opacity:1;"
         offset="1"
         id="stop3759-5" />
    </linearGradient>
    <filter
       color-interpolation-filters="sRGB"
       inkscape:collect="always"
       id="filter6265">
      <feGaussianBlur
         inkscape:collect="always"
         stdDeviation="0.037166105"
         id="feGaussianBlur6267" />
    </filter>
    <filter
       color-interpolation-filters="sRGB"
       id="filter4862"
       inkscape:label="Drop shadow"
       width="1.5"
       height="1.5"
       x="-0.25"
       y="-0.25">
      <feGaussianBlur
         id="feGaussianBlur4864"
         in="SourceAlpha"
         stdDeviation="0.500000"
         result="blur" />
      <feColorMatrix
         id="feColorMatrix4866"
         result="bluralpha"
         type="matrix"
         values="1 0 0 0 0 0 1 0 0 0 0 0 1 0 0 0 0 0 1.000000 0 " />
      <feOffset
         id="feOffset4868"
         in="bluralpha"
         dx="0.000000"
         dy="0.000000"
         result="offsetBlur" />
      <feMerge
         id="feMerge4870">
        <feMergeNode
           id="feMergeNode4872"
           in="offsetBlur" />
        <feMergeNode
           id="feMergeNode4874"
           in="SourceGraphic" />
      </feMerge>
    </filter>
    <linearGradient
       inkscape:collect="always"
       xlink:href="#linearGradient3755-39"
       id="linearGradient6141"
       gradientUnits="userSpaceOnUse"
       gradientTransform="translate(1.0625,1022.4872)"
       x1="10.679492"
       y1="20"
       x2="10.679492"
       y2="9.9948568" />
    <linearGradient
       id="linearGradient3755-39">
      <stop
         style="stop-color:#c8c8c8;stop-opacity:1;"
         offset="0"
         id="stop3757-5" />
      <stop
         style="stop-color:#ffffff;stop-opacity:1;"
         offset="1"
         id="stop3759-7" />
    </linearGradient>
    <linearGradient
       inkscape:collect="always"
       xlink:href="#linearGradient4856"
       id="linearGradient6143"
       gradientUnits="userSpaceOnUse"
       gradientTransform="translate(1.0625,1022.4872)"
       x1="25"
       y1="20"
       x2="25"
       y2="9.9999914" />
    <linearGradient
       id="linearGradient3560">
      <stop
         id="stop3562"
         offset="0"
         style="stop-color:#000000;stop-opacity:1" />
      <stop
         id="stop3564"
         offset="1"
         style="stop-color:#8e8e8e;stop-opacity:1" />
    </linearGradient>
  </defs>
  <sodipodi:namedview
     pagecolor="#ffffff"
     bordercolor="#666666"
     borderopacity="1"
     objecttolerance="10"
     gridtolerance="10"
     guidetolerance="10"
     inkscape:pageopacity="0"
     inkscape:pageshadow="2"
     inkscape:window-width="1920"
     inkscape:window-height="1174"
     id="namedview3361"
     showgrid="false"
     inkscape:zoom="7.8666667"
     inkscape:cx="16.11653"
     inkscape:cy="15.68289"
     inkscape:window-x="0"
     inkscape:window-y="0"
     inkscape:window-maximized="1"
     inkscape:current-layer="svg3359" />
  <g
     id="g3108"
     transform="matrix(1.2573524,0,0,1.2573524,-3.2601261,-1288.9557)">
    <path
       id="path6145"
       d="m 23.885285,1046.1994 0,-6.4262 0,0 0,0"
       style="fill:none;stroke:#000000;stroke-width:0.3213121;stroke-linecap:butt;stroke-linejoin:miter;stroke-miterlimit:4;stroke-opacity:1;stroke-dasharray:none" />
    <rect
       transform="matrix(0.8032802,0,0,0.8032802,3,204.07082)"
       y="1048.3309"
       x="8.8817842e-16"
       height="3"
       width="27"
       id="rect5413"
       style="fill:#000100;fill-opacity:1;stroke-width:0.2;stroke-linecap:square;stroke-linejoin:miter;stroke-miterlimit:7.5;stroke-dasharray:none;filter:url(#filter6249)" />
    <rect
       transform="matrix(0.8032802,0,0,0.8032802,3,204.07082)"
       y="1047.3309"
       x="9.53125"
       height="0.9999826"
       width="8"
       id="rect5420"
       style="fill:#000100;fill-opacity:1;stroke-width:0.2;stroke-linecap:square;stroke-linejoin:miter;stroke-miterlimit:7.5;stroke-dasharray:none;filter:url(#filter6253)" />
    <rect
       transform="matrix(0.8032802,0,0,0.8032802,3,204.07082)"
       y="1045.3309"
       x="4.53125"
       height="1.9999826"
       width="18"
       id="rect5413-9"
       style="fill:#000100;fill-opacity:1;stroke-width:0.2;stroke-linecap:square;stroke-linejoin:miter;stroke-miterlimit:7.5;stroke-dasharray:none;filter:url(#filter6257)" />
    <path
       id="path5493"
       d="m 13.869385,1033.3219 c -3.105475,0 -5.6229612,2.5737 -5.6229612,5.7484 0,3.1747 2.5174862,5.7485 5.6229612,5.7485 3.105476,0 5.622962,-2.5737 5.622962,-5.7485 0,-3.1747 -2.517486,-5.7484 -5.622962,-5.7484 z m 0,1.899 c 2.079573,0 3.765376,1.7234 3.765376,3.8494 0,2.126 -1.685803,3.8495 -3.765376,3.8495 -2.079573,0 -3.765376,-1.7235 -3.765376,-3.8495 0,-2.126 1.685803,-3.8494 3.765376,-3.8494 z"
       style="fill:#878787;fill-opacity:1;stroke:none" />
    <path
       transform="matrix(0.8032802,0,0,0.8032802,1.8201822,1025.2891)"
       d="M 17.46875,17.03125 C 17.46875,18.394703 16.363453,19.5 15,19.5 c -1.363453,0 -2.46875,-1.105297 -2.46875,-2.46875 0,-1.363453 1.105297,-2.46875 2.46875,-2.46875 1.363453,0 2.46875,1.105297 2.46875,2.46875 z"
       sodipodi:ry="2.46875"
       sodipodi:rx="2.46875"
       sodipodi:cy="17.03125"
       sodipodi:cx="15"
       id="path5563"
       style="fill:#2d2d2d;fill-opacity:1;stroke:none"
       sodipodi:type="arc" />
    <path
       transform="matrix(0.81418449,0,0,0.93284191,1.5802886,1021.7941)"
       d="M 22,17.09375 C 22,20.907967 18.907967,24 15.09375,24 11.279533,24 8.1875,20.907967 8.1875,17.09375 c 0,-3.814217 3.092033,-6.90625 6.90625,-6.90625 3.814217,0 6.90625,3.092033 6.90625,6.90625 z"
       sodipodi:ry="6.90625"
       sodipodi:rx="6.90625"
       sodipodi:cy="17.09375"
       sodipodi:cx="15.09375"
       id="path5589"
       style="fill:none;stroke:#000000;stroke-width:1.52154374;stroke-miterlimit:4;stroke-opacity:1;stroke-dasharray:none;filter:url(#filter6261)"
       sodipodi:type="arc" />
    <rect
       y="1043.7644"
       x="8.2464237"
       height="1.6065464"
       width="11.245923"
       id="rect5413-9-1"
       style="fill:url(#radialGradient6167);fill-opacity:1;stroke:none" />
    <rect
       y="1043.7644"
       x="9.8529844"
       height="1.6065464"
       width="8.0328016"
       id="rect5413-9-1-8"
       style="fill:url(#linearGradient6157);fill-opacity:1;stroke:none" />
    <path
       sodipodi:nodetypes="csccssc"
       id="path5647"
       d="m 9.0522751,1033.3193 c 0,0 2.1804689,-2.0116 2.7598029,-3.5853 0.409651,-1.1128 0.451604,-3.6417 0.451604,-3.6417 l 3.211407,0 c 0,0 0.04195,2.5007 0.451604,3.6135 0.579333,1.5738 2.759802,3.6135 2.759802,3.6135 0,0 0,0 0,0"
       style="fill:none;stroke:#000000;stroke-width:0.1703262;stroke-linecap:butt;stroke-linejoin:miter;stroke-miterlimit:4;stroke-opacity:1;stroke-dasharray:none" />
    <path
       transform="matrix(0.8032802,0,0,0.8032802,3,204.07082)"
       sodipodi:nodetypes="cscccccssssssssc"
       id="path5649"
       d="m 10.021267,1029.7472 c 0.536499,-0.7136 0.986519,-1.5446 1.150796,-2.1256 0.218474,-0.7726 0.361662,-1.8757 0.445161,-3.4296 l 0.03904,-0.7267 1.884865,0 1.884864,0 0,0.2283 c 0,0.2783 0.08244,1.55 0.125817,1.9411 0.130063,1.1721 0.294025,1.9457 0.525497,2.4794 0.203266,0.4686 0.62343,1.1584 1.059229,1.7389 0.06327,0.084 0.411384,0.4848 0.394714,0.478 -0.01667,-0.01 -0.53703,-0.4503 -0.777469,-0.5729 -1.472949,-0.7511 -3.069686,-0.9679 -4.671536,-0.6343 -0.633131,0.1318 -1.438058,0.43 -1.97347,0.7311 -0.138611,0.078 -0.571166,0.4761 -0.577525,0.4761 -0.0064,0 0.386812,-0.4466 0.490017,-0.5838 z"
       style="fill:#868686;fill-opacity:1;stroke:#000000;stroke-width:0.30000001;stroke-linecap:square;stroke-linejoin:miter;stroke-miterlimit:4;stroke-opacity:1;stroke-dasharray:none;filter:url(#filter6265)" />
    <g
       style="filter:url(#filter4862)"
       transform="matrix(0.8032802,0,0,0.8032802,23.83508,200.75729)"
       id="g3815">
      <g
         transform="matrix(-0.24700506,6.5642785e-4,-6.5642785e-4,-0.24700506,4.2290117,1299.7759)"
         id="g6137">
        <rect
           ry="0"
           y="1032.4872"
           x="2.0625"
           height="10"
           width="18"
           id="rect3793"
           style="fill:url(#linearGradient6141);fill-opacity:1;stroke:#000000;stroke-width:0.5;stroke-miterlimit:4;stroke-opacity:1;stroke-dasharray:none" />
        <path
           sodipodi:nodetypes="ccccccc"
           inkscape:connector-curvature="0"
           id="path3795"
           d="m 28.0625,1032.4872 -4,0 -4,3 0,4 4,3 4,0 z"
           style="fill:url(#linearGradient6143);fill-opacity:1;stroke:#000000;stroke-width:0.5;stroke-linecap:butt;stroke-linejoin:miter;stroke-miterlimit:4;stroke-opacity:1;stroke-dasharray:none" />
      </g>
    </g>
  </g>
</svg>
