<?xml version="1.0" encoding="UTF-8" standalone="no"?>
<!-- Created with Inkscape (http://www.inkscape.org/) -->

<svg
   xmlns:dc="http://purl.org/dc/elements/1.1/"
   xmlns:cc="http://creativecommons.org/ns#"
   xmlns:rdf="http://www.w3.org/1999/02/22-rdf-syntax-ns#"
   xmlns:svg="http://www.w3.org/2000/svg"
   xmlns="http://www.w3.org/2000/svg"
   xmlns:xlink="http://www.w3.org/1999/xlink"
   xmlns:sodipodi="http://sodipodi.sourceforge.net/DTD/sodipodi-0.dtd"
   xmlns:inkscape="http://www.inkscape.org/namespaces/inkscape"
   sodipodi:docname="current.svg"
   inkscape:version="0.47 r22583"
   version="1.1"
   id="svg2"
   height="20"
   width="40"
   onload="init(evt)"
   inkscape:export-filename="/home/tmc43/R3.14.12.3/support/pmacUtil/pmacUtilApp/opi/opi/motorhome_moving1.png"
   inkscape:export-xdpi="90"
   inkscape:export-ydpi="90">
  <sodipodi:namedview
     id="base"
     pagecolor="#ffffff"
     bordercolor="#666666"
     borderopacity="1.0"
     inkscape:pageopacity="0.0"
     inkscape:pageshadow="2"
     inkscape:zoom="11.313708"
     inkscape:cx="36.158648"
     inkscape:cy="0.39728704"
     inkscape:document-units="px"
     inkscape:current-layer="svg2"
     showgrid="false"
     inkscape:window-width="1330"
     inkscape:window-height="947"
     inkscape:window-x="398"
     inkscape:window-y="51"
     inkscape:window-maximized="0" />
  <defs
     id="defs4">
    <linearGradient
       id="linearGradient4005">
      <stop
         style="stop-color:#434343;stop-opacity:1;"
         offset="0"
         id="stop4007" />
      <stop
         style="stop-color:#919191;stop-opacity:1;"
         offset="1"
         id="stop4009" />
    </linearGradient>
    <linearGradient
       inkscape:collect="always"
       xlink:href="#linearGradient4005"
       id="linearGradient3688"
       x1="20"
       y1="20"
       x2="20"
       y2="0"
       gradientUnits="userSpaceOnUse" />
  </defs>
  <metadata
     id="metadata7">
    <rdf:RDF>
      <cc:Work
         rdf:about="">
        <dc:format>image/svg+xml</dc:format>
        <dc:type
           rdf:resource="http://purl.org/dc/dcmitype/StillImage" />
        <dc:title />
      </cc:Work>
    </rdf:RDF>
  </metadata>
  <g
     transform="translate(0,-1032.3622)"
     id="layer1"
     inkscape:groupmode="layer"
     inkscape:label="Layer 1" />
  <path
     style="color:#000000;fill:url(#linearGradient3688);fill-opacity:1;fill-rule:evenodd;stroke:none;stroke-width:1.12672090999999996;marker:none;visibility:visible;display:inline;overflow:visible;enable-background:accumulate"
     d="M 0,0 33,6 33,0 40,10 33,20 33,14 0,20 5,10 0,0 z"
     id="path3678"
     sodipodi:nodetypes="ccccccccc" />
  <path
     id="path2878"
     style="font-size:18px;font-style:normal;font-weight:normal;fill:#ffffff;fill-opacity:1;stroke:none;font-family:Bitstream Vera Sans"
     d="m 17.424034,9.5869141 0,0.7910159 -7.4355468,0 c 0.07031,1.113284 0.4042938,1.962893 1.0019528,2.548828 0.603512,0.580079 1.441401,0.870118 2.513672,0.870117 0.621087,10e-7 1.221673,-0.07617 1.801758,-0.228516 0.585929,-0.152342 1.166007,-0.380857 1.740234,-0.685546 l 0,1.529296 c -0.580087,0.246094 -1.174813,0.433594 -1.784179,0.5625 -0.609383,0.128906 -1.227546,0.193359 -1.854492,0.19336 C 11.837116,15.167968 10.592,14.710938 9.672081,13.796875 8.758017,12.882815 8.3009863,11.646488 8.3009872,10.087891 8.3009863,8.4765689 8.7345796,7.1992265 9.6017685,6.2558594 10.474812,5.3066502 11.649616,4.8320413 13.126183,4.8320312 c 1.324211,1.01e-5 2.370109,0.4277441 3.137695,1.2832032 0.773428,0.8496173 1.160146,2.0068427 1.160156,3.4716797 M 15.806847,9.1123047 C 15.795119,8.2275457 15.546096,7.5214918 15.059776,6.9941406 14.5793,6.4668053 13.940629,6.2031337 13.143761,6.203125 c -0.902349,8.7e-6 -1.625981,0.2548913 -2.170899,0.7646484 -0.539065,0.5097731 -0.849612,1.2275458 -0.93164,2.1533204 l 5.765625,-0.00879" />
  <path
     id="path2880"
     style="font-size:18px;font-style:normal;font-weight:normal;fill:#ffffff;fill-opacity:1;stroke:none;font-family:Bitstream Vera Sans"
     d="m 19.225792,9.2617188 4.737305,0 0,1.4414062 -4.737305,0 0,-1.4414062" />
</svg>
