<?xml version="1.0" ?><svg height="16px" version="1.1" viewBox="0 0 20 16" width="20px" xmlns="http://www.w3.org/2000/svg" xmlns:sketch="http://www.bohemiancoding.com/sketch/ns" xmlns:xlink="http://www.w3.org/1999/xlink"><title/><desc/><defs/><g fill="none" fill-rule="evenodd" id="Page-1" stroke="none" stroke-width="1"><g fill="#000000" id="Icons-AV" transform="translate(-42.000000, -171.000000)"><g id="video-youtube" transform="translate(42.000000, 171.000000)"><path d="M18,0.4 C17.4,0.2 13.7,0 10,0 C6.3,0 2.6,0.2 2,0.4 C0.4,0.9 0,4.4 0,8 C0,11.6 0.4,15.1 2,15.6 C2.6,15.8 6.3,16 10,16 C13.7,16 17.4,15.8 18,15.6 C19.6,15.1 20,11.6 20,8 C20,4.4 19.6,0.9 18,0.4 L18,0.4 Z M8,12.5 L8,3.5 L14,8 L8,12.5 L8,12.5 Z" id="Shape"/></g></g></g></svg>