<?xml version="1.0" encoding="UTF-8"?>
<svg xmlns="http://www.w3.org/2000/svg" xmlns:xlink="http://www.w3.org/1999/xlink" width="36pt" height="18pt" viewBox="0 0 36 18" version="1.1">
<defs>
<linearGradient id="linear0" gradientUnits="userSpaceOnUse" x1="1.800781" y1="11.117188" x2="20.121094" y2="11.117188" >
<stop offset="0" style="stop-color:rgb(25.098039%,25.098039%,25.098039%);stop-opacity:1;"/>
<stop offset="1" style="stop-color:rgb(75.294118%,75.294118%,75.294118%);stop-opacity:1;"/>
</linearGradient>
<linearGradient id="linear1" gradientUnits="userSpaceOnUse" x1="24.667969" y1="10.785156" x2="36.363281" y2="10.785156" >
<stop offset="0" style="stop-color:rgb(26.27451%,26.27451%,26.27451%);stop-opacity:1;"/>
<stop offset="1" style="stop-color:rgb(56.862745%,56.862745%,56.862745%);stop-opacity:1;"/>
</linearGradient>
<filter id="alpha" filterUnits="objectBoundingBox" x="0%" y="0%" width="100%" height="100%">
  <feColorMatrix type="matrix" in="SourceGraphic" values="0 0 0 0 1 0 0 0 0 1 0 0 0 0 1 0 0 0 1 0"/>
</filter>
<mask id="mask0">
  <g filter="url(#alpha)">
<rect x="0" y="0" width="36" height="18" style="fill:rgb(100%,100%,100%);fill-opacity:0.172549;stroke:none;"/>
  </g>
</mask>
<clipPath id="clip1">
  <rect width="36" height="18"/>
</clipPath>
<g id="surface1" clip-path="url(#clip1)">
</g>
</defs>
<g id="surface0">
<path style="fill-rule:nonzero;fill:url(#linear0);stroke-width:0.466928;stroke-linecap:butt;stroke-linejoin:miter;stroke:rgb(8.627451%,0%,0%);stroke-opacity:1;stroke-miterlimit:4;" d="M 19.887926 11.11527 C 19.887926 16.338427 15.890942 20.572856 10.960672 20.572856 C 6.030402 20.572856 2.033418 16.338427 2.033418 11.11527 C 2.033418 5.892113 6.030402 1.657684 10.960672 1.657684 C 15.890942 1.657684 19.887926 5.892113 19.887926 11.11527 Z M 19.887926 11.11527 " transform="matrix(0.991959,0,0,0.936335,7.486839,-1.489647)"/>
<path style="fill-rule:nonzero;fill:rgb(100%,100%,100%);fill-opacity:1;stroke-width:0.451088;stroke-linecap:butt;stroke-linejoin:miter;stroke:rgb(8.627451%,0%,0%);stroke-opacity:1;stroke-miterlimit:4;" d="M 8.894878 14.944009 L 10.773175 14.945912 L 10.774393 19.266719 L 8.893926 19.268575 L 8.894878 14.944009 Z M 8.894878 14.944009 " transform="matrix(-0.45,-0.779423,0.779423,-0.45,14.90968,21.224082)"/>
<path style="fill-rule:nonzero;fill:rgb(100%,100%,100%);fill-opacity:1;stroke-width:0.451088;stroke-linecap:butt;stroke-linejoin:miter;stroke:rgb(8.627451%,0%,0%);stroke-opacity:1;stroke-miterlimit:4;" d="M 7.804024 17.276132 L 11.949871 17.274134 L 11.950677 19.269265 L 7.803242 19.265333 L 7.804024 17.276132 Z M 7.804024 17.276132 " transform="matrix(-0.45,-0.779423,0.779423,-0.45,14.90968,21.224082)"/>
<path style="fill-rule:nonzero;fill:rgb(100%,100%,100%);fill-opacity:1;stroke-width:0.451088;stroke-linecap:butt;stroke-linejoin:miter;stroke:rgb(8.627451%,0%,0%);stroke-opacity:1;stroke-miterlimit:4;" d="M 8.895565 14.944426 L 10.773861 14.942523 L 10.771055 19.269258 L 8.896517 19.268991 L 8.895565 14.944426 Z M 8.895565 14.944426 " transform="matrix(-0.45,0.779423,-0.779423,-0.45,30.596344,5.826741)"/>
<path style="fill-rule:nonzero;fill:rgb(100%,100%,100%);fill-opacity:1;stroke-width:0.451088;stroke-linecap:butt;stroke-linejoin:miter;stroke:rgb(8.627451%,0%,0%);stroke-opacity:1;stroke-miterlimit:4;" d="M 7.80447 17.273343 L 11.950316 17.275341 L 11.953268 19.268301 L 7.803663 19.268474 L 7.80447 17.273343 Z M 7.80447 17.273343 " transform="matrix(-0.45,0.779423,-0.779423,-0.45,30.596344,5.826741)"/>
<path style="fill-rule:nonzero;fill:rgb(100%,100%,100%);fill-opacity:1;stroke-width:0.451088;stroke-linecap:butt;stroke-linejoin:miter;stroke:rgb(8.627451%,0%,0%);stroke-opacity:1;stroke-miterlimit:4;" d="M 8.893799 14.94339 L 10.773139 14.94339 L 10.773139 19.266307 L 8.893799 19.266307 L 8.893799 14.94339 Z M 8.893799 14.94339 " transform="matrix(0.9,0,0,0.9,9.358862,-0.159988)"/>
<path style="fill-rule:nonzero;fill:rgb(100%,100%,100%);fill-opacity:1;stroke-width:0.451088;stroke-linecap:butt;stroke-linejoin:miter;stroke:rgb(8.627451%,0%,0%);stroke-opacity:1;stroke-miterlimit:4;" d="M 7.804389 17.274119 L 11.949355 17.274119 L 11.949355 19.266307 L 7.804389 19.266307 L 7.804389 17.274119 Z M 7.804389 17.274119 " transform="matrix(0.9,0,0,0.9,9.358862,-0.159988)"/>
<path style="fill-rule:nonzero;fill:rgb(100%,100%,100%);fill-opacity:1;stroke-width:0.5;stroke-linecap:butt;stroke-linejoin:miter;stroke:rgb(8.627451%,0%,0%);stroke-opacity:1;stroke-miterlimit:4;" d="M 35.620816 10.783744 C 35.620816 13.700411 33.33349 16.065862 30.516649 16.065862 C 27.695469 16.065862 25.412483 13.700411 25.412483 10.783744 C 25.412483 7.867077 27.695469 5.505966 30.516649 5.505966 C 33.33349 5.505966 35.620816 7.867077 35.620816 10.783744 Z M 35.620816 10.783744 " transform="matrix(0.9,0,0,0.9,-9.105609,-0.787401)"/>
<path style="fill-rule:evenodd;fill:url(#linear1);stroke-width:1.484439;stroke-linecap:butt;stroke-linejoin:miter;stroke:rgb(8.627451%,0%,0%);stroke-opacity:1;stroke-miterlimit:4;" d="M 35.620534 10.78026 C 35.620534 13.705327 33.339755 16.063421 30.517774 16.063421 C 27.695792 16.063421 25.415013 13.705327 25.415013 10.78026 C 25.415013 7.868078 27.695792 5.509985 30.517774 5.509985 C 33.339755 5.509985 35.620534 7.868078 35.620534 10.78026 Z M 35.620534 10.78026 " transform="matrix(0.303145,0,0,0.303145,9.108072,5.64999)"/>
<use xlink:href="#surface1" mask="url(#mask0)"/>
</g>
</svg>
