<?xml version="1.0" encoding="UTF-8" standalone="no"?>
<svg
   xmlns:dc="http://purl.org/dc/elements/1.1/"
   xmlns:cc="http://creativecommons.org/ns#"
   xmlns:rdf="http://www.w3.org/1999/02/22-rdf-syntax-ns#"
   xmlns:svg="http://www.w3.org/2000/svg"
   xmlns="http://www.w3.org/2000/svg"
   xmlns:xlink="http://www.w3.org/1999/xlink"
   xmlns:sodipodi="http://sodipodi.sourceforge.net/DTD/sodipodi-0.dtd"
   xmlns:inkscape="http://www.inkscape.org/namespaces/inkscape"
   height="20"
   version="1.1"
   viewBox="0 0 20 20"
   width="20"
   id="svg2945"
   inkscape:version="0.47 r22583"
   sodipodi:docname="mks9xx 0.svg">
  <metadata
     id="metadata2960">
    <rdf:RDF>
      <cc:Work
         rdf:about="">
        <dc:format>image/svg+xml</dc:format>
        <dc:type
           rdf:resource="http://purl.org/dc/dcmitype/StillImage" />
        <dc:title />
      </cc:Work>
    </rdf:RDF>
  </metadata>
  <sodipodi:namedview
     pagecolor="#ffffff"
     bordercolor="#666666"
     borderopacity="1"
     objecttolerance="10"
     gridtolerance="10"
     guidetolerance="10"
     inkscape:pageopacity="0"
     inkscape:pageshadow="2"
     inkscape:window-width="1920"
     inkscape:window-height="1174"
     id="namedview2958"
     showgrid="false"
     inkscape:zoom="3.7926636"
     inkscape:cx="-22.601168"
     inkscape:cy="2.6736926"
     inkscape:window-x="1920"
     inkscape:window-y="0"
     inkscape:window-maximized="1"
     inkscape:current-layer="svg2945" />
  <defs
     id="defs2949">
    <inkscape:perspective
       sodipodi:type="inkscape:persp3d"
       inkscape:vp_x="0 : 11 : 1"
       inkscape:vp_y="0 : 1000 : 0"
       inkscape:vp_z="22 : 11 : 1"
       inkscape:persp3d-origin="11 : 7.3333333 : 1"
       id="perspective2962" />
    <path
       d="M 11,22 C 17.075133,22 22,17.075133 22,11 22,4.9248674 17.075133,0 11,0 4.9248674,0 0,4.9248674 0,11 0,17.075133 4.9248674,22 11,22 z m 0,-1 C 16.522848,21 21,16.522848 21,11 21,5.4771522 16.522848,1 11,1 5.4771522,1 1,5.4771522 1,11 1,16.522848 5.4771522,21 11,21 z m 1.89929,-7.043852 0.374591,-7.7104157 -2.285118,7.3735377 0.493068,2.789678 1.417459,-2.4528 z M 4,11 c 0,-3.8659933 3.1340067,-7 7,-7 3.865993,0 7,3.1340067 7,7 l 0.5,0 0.5,0 C 19,6.581722 15.418278,3 11,3 6.581722,3 3,6.581722 3,11 l 0.5,0 0.5,0 z"
       id="path-1" />
    <inkscape:perspective
       id="perspective3201"
       inkscape:persp3d-origin="0.5 : 0.33333333 : 1"
       inkscape:vp_z="1 : 0.5 : 1"
       inkscape:vp_y="0 : 1000 : 0"
       inkscape:vp_x="0 : 0.5 : 1"
       sodipodi:type="inkscape:persp3d" />
  </defs>
  <g
     id="g4117">
    <path
       transform="matrix(0.9382716,0,0,0.97435897,0.85185182,0.7426588)"
       d="m 19.875,9.5009556 a 10.125,9.75 0 1 1 -20.25,0 10.125,9.75 0 1 1 20.25,0 z"
       sodipodi:ry="9.75"
       sodipodi:rx="10.125"
       sodipodi:cy="9.5009556"
       sodipodi:cx="9.75"
       id="path2823"
       style="fill:#d2e6d2;fill-opacity:1;fill-rule:evenodd;stroke:#000000;stroke-width:1.04586637;stroke-linecap:square;stroke-linejoin:miter;stroke-miterlimit:4;stroke-opacity:1;stroke-dasharray:none"
       sodipodi:type="arc" />
    <use
       xlink:href="#path-1"
       id="use4036"
       style="fill:#000000;fill-rule:evenodd;stroke:none"
       x="0"
       y="0"
       width="22"
       height="22"
       transform="scale(0.90909091,0.90909091)" />
  </g>
</svg>
