<?xml version="1.0" ?><svg height="22px" version="1.1" viewBox="0 0 22 22" width="22px" xmlns="http://www.w3.org/2000/svg" xmlns:sketch="http://www.bohemiancoding.com/sketch/ns" xmlns:xlink="http://www.w3.org/1999/xlink"><title/><defs><path d="M11,22 C17.0751326,22 22,17.0751326 22,11 C22,4.92486744 17.0751326,0 11,0 C4.92486744,0 0,4.92486744 0,11 C0,17.0751326 4.92486744,22 11,22 Z M11,21 C16.5228478,21 21,16.5228478 21,11 C21,5.47715222 16.5228478,1 11,1 C5.47715222,1 1,5.47715222 1,11 C1,16.5228478 5.47715222,21 11,21 Z M12.89929,13.9561476 L13.2738805,6.2457323 L10.988763,13.6192702 L11.4818313,16.4089483 L12.89929,13.9561476 Z M4,11 C4,7.13400675 7.13400675,4 11,4 C14.8659932,4 18,7.13400675 18,11 L18.5,11 L19,11 C19,6.581722 15.418278,3 11,3 C6.581722,3 3,6.581722 3,11 L3.5,11 L4,11 Z" id="path-1"/></defs><g fill="none" fill-rule="evenodd" id="miu" stroke="none" stroke-width="1"><g id="circle_dashboard_meter_fuel_gauge_outline_stroke"><use fill="#000000" fill-rule="evenodd" xlink:href="#path-1"/><use fill="none" xlink:href="#path-1"/></g></g></svg>