<?xml version="1.0" encoding="UTF-8"?>
<svg xmlns="http://www.w3.org/2000/svg" xmlns:xlink="http://www.w3.org/1999/xlink" width="20pt" height="20pt" viewBox="0 0 20 20" version="1.1">
<defs>
<radialGradient id="radial0" gradientUnits="userSpaceOnUse" cx="8.769531" cy="2.800781" fx="8.769531" fy="2.800781" r="4.25" gradientTransform="matrix(1.116098,0.372032,-0.117647,0.352941,-0.457422,-0.250511)">
<stop offset="0" style="stop-color:rgb(67.45098%,67.45098%,67.45098%);stop-opacity:1;"/>
<stop offset="1" style="stop-color:rgb(24.705882%,24.705882%,24.705882%);stop-opacity:1;"/>
</radialGradient>
</defs>
<g id="surface0">
<path style=" stroke:none;fill-rule:evenodd;fill:rgb(100%,0%,0%);fill-opacity:1;" d="M 8 5.5 L 8 19 L 19 19 L 19 5.5 L 8 5.5 Z M 8 5.5 "/>
<path style="fill-rule:evenodd;fill:url(#radial0);stroke-width:0.5;stroke-linecap:round;stroke-linejoin:miter;stroke:rgb(28.627451%,28.627451%,28.627451%);stroke-opacity:1;stroke-miterlimit:4;" d="M 2.5 2.5 L 10.5 2.5 L 10.5 10.5 L 2.5 10.5 L 2.5 2.5 Z M 2.5 2.5 "/>
<path style="fill:none;stroke-width:1;stroke-linecap:butt;stroke-linejoin:miter;stroke:rgb(0%,0%,0%);stroke-opacity:1;stroke-miterlimit:4;" d="M 2 3.5 L 0 3.5 "/>
<path style="fill:none;stroke-width:1;stroke-linecap:butt;stroke-linejoin:miter;stroke:rgb(0%,0%,0%);stroke-opacity:1;stroke-miterlimit:4;" d="M 3.5 2 L 3.5 0 "/>
<path style="fill:none;stroke-width:1;stroke-linecap:butt;stroke-linejoin:miter;stroke:rgb(0%,0%,0%);stroke-opacity:1;stroke-miterlimit:4;" d="M 6.5 2 L 6.5 0 "/>
<path style="fill:none;stroke-width:1;stroke-linecap:butt;stroke-linejoin:miter;stroke:rgb(0%,0%,0%);stroke-opacity:1;stroke-miterlimit:4;" d="M 9.5 2 L 9.5 0 "/>
<path style="fill:none;stroke-width:1;stroke-linecap:butt;stroke-linejoin:miter;stroke:rgb(0%,0%,0%);stroke-opacity:1;stroke-miterlimit:4;" d="M 2 6.5 L 0 6.5 "/>
<path style="fill:none;stroke-width:1;stroke-linecap:butt;stroke-linejoin:miter;stroke:rgb(0%,0%,0%);stroke-opacity:1;stroke-miterlimit:4;" d="M 2 9.5 L 0 9.5 "/>
<path style="fill:none;stroke-width:1;stroke-linecap:butt;stroke-linejoin:miter;stroke:rgb(0%,0%,0%);stroke-opacity:1;stroke-miterlimit:4;" d="M 3.5 13 L 3.5 11 "/>
<path style="fill:none;stroke-width:1;stroke-linecap:butt;stroke-linejoin:miter;stroke:rgb(0%,0%,0%);stroke-opacity:1;stroke-miterlimit:4;" d="M 6.5 13 L 6.5 11 "/>
<path style="fill:none;stroke-width:1;stroke-linecap:butt;stroke-linejoin:miter;stroke:rgb(0%,0%,0%);stroke-opacity:1;stroke-miterlimit:4;" d="M 9.5 13 L 9.5 11 "/>
<path style="fill:none;stroke-width:1;stroke-linecap:butt;stroke-linejoin:miter;stroke:rgb(0%,0%,0%);stroke-opacity:1;stroke-miterlimit:4;" d="M 13 3.5 L 11 3.5 "/>
<path style="fill:none;stroke-width:1;stroke-linecap:butt;stroke-linejoin:miter;stroke:rgb(0%,0%,0%);stroke-opacity:1;stroke-miterlimit:4;" d="M 13 6.5 L 11 6.5 "/>
<path style="fill:none;stroke-width:1;stroke-linecap:butt;stroke-linejoin:miter;stroke:rgb(0%,0%,0%);stroke-opacity:1;stroke-miterlimit:4;" d="M 13 9.5 L 11 9.5 "/>
<path style=" stroke:none;fill-rule:evenodd;fill:rgb(100%,0%,0%);fill-opacity:0.501961;" d="M 8 5.5 L 8 19 L 19 19 L 19 5.5 L 8 5.5 Z M 8 5.5 "/>
<path style="fill-rule:nonzero;fill:rgb(0%,0%,0%);fill-opacity:0.501961;stroke-width:1;stroke-linecap:butt;stroke-linejoin:miter;stroke:rgb(100%,100%,100%);stroke-opacity:0.501961;stroke-miterlimit:4;" d="M 7.5 4.5 L 7.5 6 L 19.5 6 L 19.5 4.5 L 7.5 4.5 Z M 7.5 4.5 "/>
<path style="fill:none;stroke-width:1;stroke-linecap:butt;stroke-linejoin:miter;stroke:rgb(75.686275%,75.686275%,75.686275%);stroke-opacity:1;stroke-miterlimit:4;" d="M 7.5 4.5 L 7.5 19.5 L 19.5 19.5 L 19.5 4.5 L 7.5 4.5 Z M 7.5 4.5 "/>
</g>
</svg>
