<?xml version="1.0" encoding="UTF-8" standalone="no"?>
<!-- Created with Inkscape (http://www.inkscape.org/) -->

<svg
   xmlns:dc="http://purl.org/dc/elements/1.1/"
   xmlns:cc="http://creativecommons.org/ns#"
   xmlns:rdf="http://www.w3.org/1999/02/22-rdf-syntax-ns#"
   xmlns:svg="http://www.w3.org/2000/svg"
   xmlns="http://www.w3.org/2000/svg"
   xmlns:sodipodi="http://sodipodi.sourceforge.net/DTD/sodipodi-0.dtd"
   xmlns:inkscape="http://www.inkscape.org/namespaces/inkscape"
   version="1.0"
   width="20.000525"
   height="20.000956"
   id="svg1307"
   sodipodi:version="0.32"
   inkscape:version="0.47 r22583"
   sodipodi:docname="fastValve 5.svg">
  <metadata
     id="metadata1313">
    <rdf:RDF>
      <cc:Work
         rdf:about="">
        <dc:format>image/svg+xml</dc:format>
        <dc:type
           rdf:resource="http://purl.org/dc/dcmitype/StillImage" />
        <dc:title />
      </cc:Work>
    </rdf:RDF>
  </metadata>
  <sodipodi:namedview
     inkscape:window-height="885"
     inkscape:window-width="942"
     inkscape:pageshadow="2"
     inkscape:pageopacity="0.0"
     borderopacity="1.0"
     bordercolor="#666666"
     pagecolor="#ffffff"
     id="base"
     inkscape:zoom="11.313708"
     inkscape:cx="-10.955699"
     inkscape:cy="-4.3814916"
     inkscape:window-x="4163"
     inkscape:window-y="21"
     inkscape:current-layer="svg1307"
     showgrid="false"
     showguides="true"
     inkscape:guide-bbox="true"
     inkscape:window-maximized="0"
     inkscape:snap-global="false"
     inkscape:snap-to-guides="true"
     inkscape:snap-grids="true">
    <inkscape:grid
       type="xygrid"
       id="grid2859"
       empspacing="10"
       visible="true"
       enabled="true"
       snapvisiblegridlinesonly="true"
       spacingx="0.5px"
       spacingy="0.5px" />
  </sodipodi:namedview>
  <defs
     id="defs1309">
    <inkscape:path-effect
       effect="skeletal"
       id="path-effect3647"
       is_visible="true"
       pattern="M 0,0 0,10 10,5 z"
       copytype="single_stretched"
       prop_scale="1"
       scale_y_rel="false"
       spacing="0"
       normal_offset="0"
       tang_offset="0"
       prop_units="false"
       vertical_pattern="false"
       fuse_tolerance="0" />
    <inkscape:path-effect
       effect="skeletal"
       id="path-effect2871"
       is_visible="true"
       pattern="M 0,0 0,10 10,5 z"
       copytype="single_stretched"
       prop_scale="1"
       scale_y_rel="false"
       spacing="0"
       normal_offset="0"
       tang_offset="0"
       prop_units="false"
       vertical_pattern="false"
       fuse_tolerance="0" />
    <inkscape:path-effect
       effect="skeletal"
       id="path-effect3599"
       is_visible="true"
       pattern="M 0,0 0,10 10,5 z"
       copytype="single_stretched"
       prop_scale="1"
       scale_y_rel="false"
       spacing="0"
       normal_offset="0"
       tang_offset="0"
       prop_units="false"
       vertical_pattern="false"
       fuse_tolerance="0" />
    <inkscape:perspective
       sodipodi:type="inkscape:persp3d"
       inkscape:vp_x="0 : 10.000478 : 1"
       inkscape:vp_y="0 : 1000 : 0"
       inkscape:vp_z="20.000525 : 10.000478 : 1"
       inkscape:persp3d-origin="10.000262 : 6.6669852 : 1"
       id="perspective17" />
    <inkscape:perspective
       id="perspective2858"
       inkscape:persp3d-origin="0.5 : 0.33333333 : 1"
       inkscape:vp_z="1 : 0.5 : 1"
       inkscape:vp_y="0 : 1000 : 0"
       inkscape:vp_x="0 : 0.5 : 1"
       sodipodi:type="inkscape:persp3d" />
    <inkscape:perspective
       id="perspective2916"
       inkscape:persp3d-origin="0.5 : 0.33333333 : 1"
       inkscape:vp_z="1 : 0.5 : 1"
       inkscape:vp_y="0 : 1000 : 0"
       inkscape:vp_x="0 : 0.5 : 1"
       sodipodi:type="inkscape:persp3d" />
    <inkscape:perspective
       id="perspective2827"
       inkscape:persp3d-origin="0.5 : 0.33333333 : 1"
       inkscape:vp_z="1 : 0.5 : 1"
       inkscape:vp_y="0 : 1000 : 0"
       inkscape:vp_x="0 : 0.5 : 1"
       sodipodi:type="inkscape:persp3d" />
  </defs>
  <path
     style="color:#000000;fill:none;stroke:#000000;stroke-width:0.05669598;stroke-opacity:1;marker:none;visibility:visible;display:inline;overflow:visible;enable-background:accumulate"
     d="m 6.5267685,2.0293036 0,0.1031879 -0.4984205,0 0,0.1031879 0.8722359,0 0,0.1031878 -0.4984205,0 0,0.077391"
     id="path3645"
     sodipodi:nodetypes="cccccccc" />
  <path
     id="epicscolour1-5"
     vector-effect="non-scaling-stroke"
     style="fill:#ffff00;fill-opacity:1;stroke:#000000;stroke-width:1;stroke-linecap:butt;stroke-linejoin:miter;stroke-miterlimit:4;stroke-opacity:1;stroke-dasharray:none"
     d="m 0.97499999,19.025956 0,-18.05000001 18.05000001,0 0,18.05000001 -18.05000001,0 z"
     sodipodi:nodetypes="ccccc" />
  <path
     id="epicscolour1-5-2"
     vector-effect="non-scaling-stroke"
     style="fill:#ffff00;fill-opacity:1;stroke:#000000;stroke-width:0.75;stroke-linecap:butt;stroke-linejoin:round;stroke-miterlimit:4;stroke-opacity:1;stroke-dasharray:none;opacity:1"
     d="m 7.5440414,14.197826 0,-8.529654 m -0.4717721,-2.7602334 5.9957477,0 0,14.0501214 -6.1139665,0"
     sodipodi:nodetypes="cccccc" />
  <path
     style="fill:#c87137;stroke-width:0.75;stroke-linejoin:miter;stroke-miterlimit:4;stroke-dasharray:none"
     d="m 1.4893809,9.9751459 0,-8.4852818 8.4852817,0 8.4852814,0 0,8.4852818 0,8.4852821 -8.4852814,0 -8.4852817,0 0,-8.4852821 z M 13.33342,17.222991 c 0.173848,-0.173849 0.176777,-0.294628 0.176777,-7.2920393 0,-6.9974112 -0.0029,-7.1181902 -0.176777,-7.292039 C 13.163475,2.468968 13.038792,2.462136 10.107245,2.462136 l -3.049398,0 0,0.4419418 0,0.4419417 2.7842331,0 2.7842329,0 0,6.5849322 0,6.5849323 -2.8726212,0 -2.8726215,0 0,0.441942 0,0.441941 3.1377867,0 c 3.019935,0 3.144426,-0.0066 3.314563,-0.176776 z m -5.3916894,-7.2920393 0,-4.286835 -0.3977476,0 -0.3977476,0 0,4.286835 0,4.2868353 0.3977476,0 0.3977476,0 0,-4.2868353 z"
     id="path2821" />
  <path
     style="fill:#f4e3d7;stroke-width:0.75000000000000000;stroke-linejoin:miter;stroke-miterlimit:4;stroke-dasharray:none"
     d="m 1.4893809,9.9751459 0,-8.4852818 8.4852817,0 8.4852814,0 0,8.4852818 0,8.4852821 -8.4852814,0 -8.4852817,0 0,-8.4852821 z M 13.372603,17.203323 c 0.121751,-0.173825 0.137594,-1.011157 0.137594,-7.2723713 0,-6.261214 -0.01584,-7.0985466 -0.137594,-7.2723721 l -0.137595,-0.1964436 -3.088581,0 -3.08858,0 0,0.4419418 0,0.4419417 2.7842331,0 2.7842329,0 0,6.5849322 0,6.5849323 -2.8726212,0 -2.8726215,0 0,0.441942 0,0.441941 3.1769687,0 3.176969,0 0.137595,-0.196444 0,0 z m -5.4308724,-7.2723713 0,-4.286835 -0.3977476,0 -0.3977476,0 0,4.286835 0,4.2868353 0.3977476,0 0.3977476,0 0,-4.2868353 z"
     id="path2822" />
</svg>
