<?xml version="1.0" encoding="UTF-8" standalone="no"?>
<!-- Created with Inkscape (http://www.inkscape.org/) -->

<svg
   xmlns:dc="http://purl.org/dc/elements/1.1/"
   xmlns:cc="http://creativecommons.org/ns#"
   xmlns:rdf="http://www.w3.org/1999/02/22-rdf-syntax-ns#"
   xmlns:svg="http://www.w3.org/2000/svg"
   xmlns="http://www.w3.org/2000/svg"
   xmlns:xlink="http://www.w3.org/1999/xlink"
   xmlns:sodipodi="http://sodipodi.sourceforge.net/DTD/sodipodi-0.dtd"
   xmlns:inkscape="http://www.inkscape.org/namespaces/inkscape"
   sodipodi:docname="cogs.svg"
   inkscape:version="0.47 r22583"
   version="1.1"
   id="svg2"
   height="20"
   width="40"
   onload="init(evt)"
   inkscape:export-filename="/home/tmc43/R3.14.12.3/support/BLGui/BLGuiApp/opi/opi/cogs.png"
   inkscape:export-xdpi="90"
   inkscape:export-ydpi="90">
  <sodipodi:namedview
     id="base"
     pagecolor="#ffffff"
     bordercolor="#666666"
     borderopacity="1.0"
     inkscape:pageopacity="0.0"
     inkscape:pageshadow="2"
     inkscape:zoom="11.313708"
     inkscape:cx="17.485677"
     inkscape:cy="-7.5930987"
     inkscape:document-units="px"
     inkscape:current-layer="svg2"
     showgrid="false"
     inkscape:window-width="1330"
     inkscape:window-height="947"
     inkscape:window-x="56"
     inkscape:window-y="24"
     inkscape:window-maximized="0" />
  <defs
     id="defs4">
    <linearGradient
       id="linearGradient3978">
      <stop
         style="stop-color:#404040;stop-opacity:1;"
         offset="0"
         id="stop3980" />
      <stop
         style="stop-color:#c0c0c0;stop-opacity:1;"
         offset="1"
         id="stop3982" />
    </linearGradient>
    <linearGradient
       id="linearGradient3966">
      <stop
         style="stop-color:#404040;stop-opacity:1;"
         offset="0"
         id="stop3968" />
      <stop
         style="stop-color:#c0c0c0;stop-opacity:1;"
         offset="1"
         id="stop3970" />
    </linearGradient>
    <inkscape:perspective
       sodipodi:type="inkscape:persp3d"
       inkscape:vp_x="0 : 10 : 1"
       inkscape:vp_y="0 : 1000 : 0"
       inkscape:vp_z="40 : 10 : 1"
       inkscape:persp3d-origin="20 : 6.6666667 : 1"
       id="perspective21" />
    <linearGradient
       id="linearGradient4005">
      <stop
         style="stop-color:#434343;stop-opacity:1;"
         offset="0"
         id="stop4007" />
      <stop
         style="stop-color:#919191;stop-opacity:1;"
         offset="1"
         id="stop4009" />
    </linearGradient>
    <linearGradient
       id="linearGradient3766">
      <stop
         id="stop3768"
         offset="0"
         style="stop-color:#81ff8f;stop-opacity:1;" />
      <stop
         id="stop3770"
         offset="1"
         style="stop-color:#102bff;stop-opacity:1;" />
    </linearGradient>
    <radialGradient
       inkscape:collect="always"
       xlink:href="#linearGradient4005"
       id="radialGradient4260"
       gradientUnits="userSpaceOnUse"
       gradientTransform="matrix(1,0,0,1.0136341,2.4095935e-8,-0.13634068)"
       cx="15.349704"
       cy="9.999999"
       fx="15.349704"
       fy="9.999999"
       r="9.7453995" />
    <linearGradient
       inkscape:collect="always"
       xlink:href="#linearGradient4005"
       id="linearGradient3601"
       x1="31.156986"
       y1="13.214286"
       x2="27.10998"
       y2="6.5178571"
       gradientUnits="userSpaceOnUse" />
    <linearGradient
       inkscape:collect="always"
       xlink:href="#linearGradient4005"
       id="linearGradient3868"
       gradientUnits="userSpaceOnUse"
       x1="18.515018"
       y1="15.535714"
       x2="12.184388"
       y2="4.107142" />
    <linearGradient
       inkscape:collect="always"
       xlink:href="#linearGradient4005"
       id="linearGradient3870"
       gradientUnits="userSpaceOnUse"
       x1="31.573582"
       y1="12.83801"
       x2="27.883886"
       y2="7.9181848"
       gradientTransform="matrix(1.0813794,0,0,1.3066667,-2.6806039,-3.6499522)" />
    <inkscape:perspective
       id="perspective3893"
       inkscape:persp3d-origin="0.5 : 0.33333333 : 1"
       inkscape:vp_z="1 : 0.5 : 1"
       inkscape:vp_y="0 : 1000 : 0"
       inkscape:vp_x="0 : 0.5 : 1"
       sodipodi:type="inkscape:persp3d" />
    <inkscape:perspective
       id="perspective3946"
       inkscape:persp3d-origin="0.5 : 0.33333333 : 1"
       inkscape:vp_z="1 : 0.5 : 1"
       inkscape:vp_y="0 : 1000 : 0"
       inkscape:vp_x="0 : 0.5 : 1"
       sodipodi:type="inkscape:persp3d" />
    <linearGradient
       inkscape:collect="always"
       xlink:href="#linearGradient3966"
       id="linearGradient3972"
       x1="24.1875"
       y1="12.6875"
       x2="24.1875"
       y2="2.4375"
       gradientUnits="userSpaceOnUse" />
    <linearGradient
       inkscape:collect="always"
       xlink:href="#linearGradient3966"
       id="linearGradient3974"
       x1="10.09375"
       y1="20.0625"
       x2="10.09375"
       y2="-0.03125"
       gradientUnits="userSpaceOnUse" />
    <linearGradient
       inkscape:collect="always"
       xlink:href="#linearGradient3978"
       id="linearGradient3984"
       x1="9.7227182"
       y1="2.8905416"
       x2="9.7227182"
       y2="15.959391"
       gradientUnits="userSpaceOnUse"
       gradientTransform="matrix(0.86505621,0,0,0.8859513,1.6830522,1.6655642)" />
    <linearGradient
       inkscape:collect="always"
       xlink:href="#linearGradient3978"
       id="linearGradient3994"
       x1="24.622469"
       y1="5.8578644"
       x2="24.622469"
       y2="9.2039948"
       gradientUnits="userSpaceOnUse"
       gradientTransform="matrix(1.1732735,0,0,1.1954107,-4.7013903,-1.4400538)" />
    <inkscape:perspective
       id="perspective4006"
       inkscape:persp3d-origin="0.5 : 0.33333333 : 1"
       inkscape:vp_z="1 : 0.5 : 1"
       inkscape:vp_y="0 : 1000 : 0"
       inkscape:vp_x="0 : 0.5 : 1"
       sodipodi:type="inkscape:persp3d" />
    <inkscape:perspective
       id="perspective4044"
       inkscape:persp3d-origin="0.5 : 0.33333333 : 1"
       inkscape:vp_z="1 : 0.5 : 1"
       inkscape:vp_y="0 : 1000 : 0"
       inkscape:vp_x="0 : 0.5 : 1"
       sodipodi:type="inkscape:persp3d" />
    <inkscape:perspective
       id="perspective4070"
       inkscape:persp3d-origin="0.5 : 0.33333333 : 1"
       inkscape:vp_z="1 : 0.5 : 1"
       inkscape:vp_y="0 : 1000 : 0"
       inkscape:vp_x="0 : 0.5 : 1"
       sodipodi:type="inkscape:persp3d" />
    <linearGradient
       inkscape:collect="always"
       xlink:href="#linearGradient3978"
       id="linearGradient4086"
       gradientUnits="userSpaceOnUse"
       gradientTransform="matrix(1.1732735,0,0,1.1954107,-4.7013903,-1.4400538)"
       x1="24.622469"
       y1="5.8578644"
       x2="24.622469"
       y2="9.2039948" />
    <linearGradient
       inkscape:collect="always"
       xlink:href="#linearGradient3966"
       id="linearGradient4090"
       gradientUnits="userSpaceOnUse"
       x1="24.1875"
       y1="12.6875"
       x2="24.1875"
       y2="2.4375" />
    <linearGradient
       inkscape:collect="always"
       xlink:href="#linearGradient3966"
       id="linearGradient4275"
       gradientUnits="userSpaceOnUse"
       x1="25.427725"
       y1="17.333624"
       x2="25.427725"
       y2="3.0166414"
       gradientTransform="translate(-2.0003,0)" />
    <linearGradient
       inkscape:collect="always"
       xlink:href="#linearGradient3978"
       id="linearGradient4277"
       gradientUnits="userSpaceOnUse"
       gradientTransform="matrix(1.1732735,-2.1706459e-8,-1.7077869e-8,1.1954107,-6.7016902,-1.440054)"
       x1="25.687862"
       y1="7.1122265"
       x2="25.687862"
       y2="12.341428" />
    <inkscape:perspective
       id="perspective4293"
       inkscape:persp3d-origin="0.5 : 0.33333333 : 1"
       inkscape:vp_z="1 : 0.5 : 1"
       inkscape:vp_y="0 : 1000 : 0"
       inkscape:vp_x="0 : 0.5 : 1"
       sodipodi:type="inkscape:persp3d" />
    <linearGradient
       inkscape:collect="always"
       xlink:href="#linearGradient3966"
       id="linearGradient4307"
       gradientUnits="userSpaceOnUse"
       x1="10.09375"
       y1="20.0625"
       x2="10.09375"
       y2="-0.03125" />
    <linearGradient
       inkscape:collect="always"
       xlink:href="#linearGradient3978"
       id="linearGradient4309"
       gradientUnits="userSpaceOnUse"
       gradientTransform="matrix(0.86505621,0,0,0.8859513,1.6830522,1.6655642)"
       x1="9.7227182"
       y1="2.8905416"
       x2="9.7227182"
       y2="15.959391" />
    <linearGradient
       inkscape:collect="always"
       xlink:href="#linearGradient3978"
       id="linearGradient4312"
       gradientUnits="userSpaceOnUse"
       gradientTransform="matrix(0.86505621,0,0,0.8859513,-0.31669781,1.6655642)"
       x1="9.7227182"
       y1="2.8905416"
       x2="9.7227182"
       y2="15.959391" />
    <linearGradient
       inkscape:collect="always"
       xlink:href="#linearGradient3966"
       id="linearGradient4315"
       gradientUnits="userSpaceOnUse"
       x1="10.09375"
       y1="20.0625"
       x2="10.09375"
       y2="-0.03125"
       gradientTransform="translate(-1.99975,0)" />
  </defs>
  <metadata
     id="metadata7">
    <rdf:RDF>
      <cc:Work
         rdf:about="">
        <dc:format>image/svg+xml</dc:format>
        <dc:type
           rdf:resource="http://purl.org/dc/dcmitype/StillImage" />
        <dc:title />
      </cc:Work>
    </rdf:RDF>
  </metadata>
  <g
     transform="translate(0,-1032.3622)"
     id="layer1"
     inkscape:groupmode="layer"
     inkscape:label="Layer 1" />
  <script
     id="script4250">
  	var svgNS = &quot;http://www.w3.org/2000/svg&quot;;

	function init(evt)
	{
		if ( window.svgDocument == null )
		{
			svgDocument = evt.target.ownerDocument;
		}
		addRotateTransform('gear12', 6, 1);
		addRotateTransform('gear6', 3, -1);
	}

	function addRotateTransform(target_id, speed, direction)
	{
		var element_to_rotate = svgDocument.getElementById(target_id);
		var my_transform = svgDocument.createElementNS(svgNS, &quot;animateTransform&quot;);

		var bb = element_to_rotate.getBBox();
		var cx = bb.x + bb.width/2;
		var cy = bb.y + bb.height/2;

		my_transform.setAttributeNS(null, &quot;attributeName&quot;, &quot;transform&quot;);
		my_transform.setAttributeNS(null, &quot;attributeType&quot;, &quot;XML&quot;);
		my_transform.setAttributeNS(null, &quot;type&quot;, &quot;rotate&quot;);
		my_transform.setAttributeNS(null, &quot;dur&quot;, speed + &quot;s&quot;);
		my_transform.setAttributeNS(null, &quot;repeatCount&quot;, &quot;indefinite&quot;);
		my_transform.setAttributeNS(null, &quot;from&quot;, &quot;0 &quot;+cx+&quot; &quot;+cy);
		my_transform.setAttributeNS(null, &quot;to&quot;, 360*direction+&quot; &quot;+cx+&quot; &quot;+cy);

		element_to_rotate.appendChild(my_transform);
		my_transform.beginElement();
	}
  </script>
  <g
     id="g4319"
     transform="translate(1.99975,0)">
    <path
       id="path3020"
       d="M 9.9375,0.21875 9,1.6875 8.84375,2.40625 C 8.338946,2.488123 7.842054,2.6384494 7.375,2.8125 L 6.875,2.25 5.34375,1.4375 5.0625,1.59375 4.96875,3.34375 5.1875,4.03125 C 4.7808157,4.361671 4.4256467,4.7200773 4.09375,5.125 L 3.4375,4.90625 1.6875,4.96875 1.53125,5.25 l 0.8125,1.5625 0.5,0.4375 C 2.6570704,7.7355378 2.5227715,8.2542815 2.4375,8.78125 l -0.6875,0.125 -1.46875,0.9375 0,0.34375 L 1.75,11.125 2.4375,11.25 c 0.085272,0.526968 0.2195704,1.045712 0.40625,1.53125 l -0.5,0.4375 -0.8125,1.5625 0.15625,0.28125 1.75,0.0625 0.65625,-0.21875 C 4.4258864,15.311625 4.7804272,15.669263 5.1875,16 l -0.21875,0.6875 0.09375,1.75 0.28125,0.15625 1.53125,-0.8125 0.5,-0.5625 c 0.4662396,0.173747 0.9648833,0.324351 1.46875,0.40625 L 9,18.34375 l 0.9375,1.46875 0.3125,0 0.9375,-1.46875 0.15625,-0.71875 c 0.509804,-0.08286 0.997525,-0.22942 1.46875,-0.40625 l 0.5,0.5625 1.53125,0.8125 0.28125,-0.15625 0.09375,-1.75 -0.25,-0.6875 c 0.414755,-0.334741 0.787513,-0.681844 1.125,-1.09375 L 16.75,15.125 18.5,15.0625 18.65625,14.78125 17.84375,13.21875 17.3125,12.75 c 0.182218,-0.478562 0.353583,-0.981401 0.4375,-1.5 l 0.6875,-0.125 1.46875,-0.9375 0,-0.34375 -1.46875,-0.9375 -0.6875,-0.125 c -0.08392,-0.5185988 -0.255282,-1.0214382 -0.4375,-1.5 L 17.84375,6.8125 18.65625,5.25 18.5,4.96875 16.75,4.90625 16.09375,5.125 C 15.756501,4.7135474 15.383116,4.3656768 14.96875,4.03125 l 0.25,-0.6875 L 15.125,1.59375 14.84375,1.4375 13.3125,2.25 l -0.5,0.5625 C 12.340462,2.6353651 11.854492,2.4890861 11.34375,2.40625 L 11.1875,1.6875 10.25,0.21875 l -0.3125,0 z M 10.09375,7.5 c 1.380712,0 2.5,1.1192881 2.5,2.5 0,1.380712 -1.119288,2.5 -2.5,2.5 -1.3807119,0 -2.5,-1.119288 -2.5,-2.5 0,-1.3807119 1.1192881,-2.5 2.5,-2.5 z"
       style="fill:url(#linearGradient4315);fill-opacity:1;stroke:#000000;stroke-width:0.30000001;stroke-miterlimit:4;stroke-opacity:1;stroke-dasharray:none" />
    <path
       id="path3976"
       d="m 10.09375,4.21875 c -3.1972768,0 -5.78125,2.6152232 -5.78125,5.8125 0,3.197277 2.5839732,5.78125 5.78125,5.78125 3.197277,0 5.78125,-2.583973 5.78125,-5.78125 0,-3.1972768 -2.583973,-5.8125 -5.78125,-5.8125 z m 0,3.28125 c 1.380712,0 2.5,1.1192881 2.5,2.5 0,1.380712 -1.119288,2.5 -2.5,2.5 -1.3807119,0 -2.5,-1.119288 -2.5,-2.5 0,-1.3807119 1.1192881,-2.5 2.5,-2.5 z"
       style="fill:url(#linearGradient4312);fill-opacity:1;fill-rule:evenodd;stroke:none" />
  </g>
  <g
     id="g4279"
     transform="translate(2.0003,0)">
    <path
       id="path3068"
       d="m 19.41366,6.6289068 -0.08196,0.092421 1.036559,2.107872 0.602664,0.418845 0.247271,0.03766 c -0.132293,0.5981258 -0.162246,1.2096782 -0.03065,1.8219142 l -0.208208,0.03 -0.623222,0.404923 -1.013096,2.073392 0.05859,0.101488 2.32169,0.193158 0.662283,-0.337266 0.16391,-0.18485 c 0.459902,0.410592 0.983828,0.722184 1.55932,0.903945 l -0.09102,0.232973 0.0614,0.731346 1.287662,1.917795 0.140558,0.0091 1.28513,-1.914713 0.05962,-0.75611 -0.08336,-0.222504 c 0.273331,-0.09137 0.557779,-0.231817 0.817135,-0.381557 0.270773,-0.156331 0.515773,-0.315725 0.739004,-0.516881 l 0.151015,0.183445 0.68462,0.326422 2.300756,-0.155599 0.06242,-0.126256 -1.017027,-2.074043 -0.636493,-0.399314 -0.213442,-0.05719 c 0.126799,-0.585537 0.122408,-1.203305 -0.0032,-1.8023829 l 0.24204,-0.049525 0.623224,-0.4049209 0.993564,-2.107221 L 31.453827,6.6237854 29.151668,6.4644435 28.489383,6.8017079 28.32547,6.9865537 C 27.866825,6.5727113 27.341696,6.2671538 26.766172,6.0825815 L 26.823362,5.86914 26.795792,5.118264 25.4886,3.1666415 l -0.121017,0.024767 -1.285131,1.9147135 -0.05962,0.7561094 0.06383,0.1886756 c -0.285486,0.09272 -0.54666,0.2254033 -0.817132,0.3815603 -0.259356,0.1497395 -0.523217,0.3258469 -0.739008,0.5168772 L 22.399036,6.7997297 21.714415,6.4733078 19.41366,6.6289068 z m 5.242587,2.2054276 c 0.747333,-0.4314725 1.702943,-0.1754175 2.134415,0.5719147 0.431473,0.7473319 0.175418,1.7029419 -0.571915,2.1344149 -0.747332,0.431472 -1.702942,0.175417 -2.134414,-0.571915 -0.431473,-0.747332 -0.175418,-1.7029421 0.571914,-2.1344146 z"
       style="fill:url(#linearGradient4275);fill-opacity:1;stroke:#000000;stroke-width:0.30000001;stroke-miterlimit:4;stroke-opacity:1;stroke-dasharray:none" />
    <path
       id="path3986"
       d="m 23.874997,7.4811697 c -1.494664,0.862945 -2.006774,2.7741653 -1.143829,4.2688293 0.862945,1.494665 2.774165,2.006774 4.268829,1.143829 1.494665,-0.862945 2.006775,-2.774164 1.14383,-4.2688289 -0.862945,-1.4946645 -2.774165,-2.0067744 -4.26883,-1.1438294 z m 0.78125,1.3531647 c 0.747333,-0.4314725 1.702943,-0.1754175 2.134415,0.5719147 0.431473,0.7473319 0.175418,1.7029419 -0.571915,2.1344149 -0.747332,0.431472 -1.702942,0.175417 -2.134414,-0.571915 -0.431473,-0.747332 -0.175418,-1.7029421 0.571914,-2.1344146 z"
       style="fill:url(#linearGradient4277);fill-opacity:1;fill-rule:evenodd;stroke:none" />
  </g>
</svg>
