<?xml version="1.0" encoding="UTF-8"?>
<svg xmlns="http://www.w3.org/2000/svg" xmlns:xlink="http://www.w3.org/1999/xlink" width="20pt" height="20pt" viewBox="0 0 20 20" version="1.1">
<defs>
<radialGradient id="radial0" gradientUnits="userSpaceOnUse" cx="5.035156" cy="12.894531" fx="5.035156" fy="12.894531" r="6.25" gradientTransform="matrix(1.44,0.0000000752929,-0.000000093872,1.44,2.747059,-3.565519)">
<stop offset="0" style="stop-color:rgb(100%,100%,100%);stop-opacity:1;"/>
<stop offset="1" style="stop-color:rgb(43.529412%,43.529412%,43.529412%);stop-opacity:1;"/>
</radialGradient>
<radialGradient id="radial1" gradientUnits="userSpaceOnUse" cx="5" cy="5.214844" fx="5" fy="5.214844" r="10" gradientTransform="matrix(1.4,-0.1,0.0249365,0.349111,27.869974,8.679638)">
<stop offset="0" style="stop-color:rgb(62.745098%,79.607843%,80.392157%);stop-opacity:1;"/>
<stop offset="0.182747" style="stop-color:rgb(40.784314%,56.078431%,56.862745%);stop-opacity:1;"/>
<stop offset="0.379031" style="stop-color:rgb(37.647059%,50.980392%,52.156863%);stop-opacity:1;"/>
<stop offset="1" style="stop-color:rgb(38.823529%,38.823529%,38.823529%);stop-opacity:1;"/>
</radialGradient>
<radialGradient id="radial2" gradientUnits="userSpaceOnUse" cx="12.417969" cy="2.582031" fx="12.417969" fy="2.582031" r="4.25" gradientTransform="matrix(0.941176,0.941176,-0.499134,0.499134,1.603156,-9.975705)">
<stop offset="0" style="stop-color:rgb(100%,100%,100%);stop-opacity:1;"/>
<stop offset="1" style="stop-color:rgb(1.176471%,100%,20%);stop-opacity:1;"/>
</radialGradient>
</defs>
<g id="surface0">
<path style="fill-rule:evenodd;fill:url(#radial0);stroke-width:0.5;stroke-linecap:round;stroke-linejoin:miter;stroke:rgb(28.627451%,28.627451%,28.627451%);stroke-opacity:1;stroke-miterlimit:4;" d="M 4 0.25 L 16 0.25 L 16 19.75 L 4 19.75 L 4 0.25 Z M 4 0.25 "/>
<path style="fill-rule:nonzero;fill:rgb(90.980392%,19.607843%,19.607843%);fill-opacity:1;stroke-width:0.5;stroke-linecap:butt;stroke-linejoin:miter;stroke:rgb(66.27451%,64.705882%,63.529412%);stroke-opacity:1;stroke-miterlimit:4;" d="M 10 -79.5 L 29.5 -79.5 L 29.5 -60 L 10 -60 L 10 -79.5 Z M 10 -79.5 "/>
<path style=" stroke:none;fill-rule:nonzero;fill:rgb(0%,0%,0%);fill-opacity:1;" d="M -30 -55 C -28.019531 -55.863281 -25.960938 -56.21875 -23.667969 -55 L -23.667969 -51.070312 C -26.050781 -49.636719 -28.082031 -50.054688 -30 -51.070312 L -30 -55 Z M -30 -55 "/>
<path style="fill:none;stroke-width:0.955068;stroke-linecap:butt;stroke-linejoin:miter;stroke:rgb(0%,0%,0%);stroke-opacity:1;stroke-miterlimit:4;" d="M -32.566406 -56.480469 C -31.925781 -57.257812 -31.550781 -58.199219 -31.550781 -59.214844 C -31.550781 -61.851562 -34.082031 -63.988281 -37.207031 -63.988281 C -40.332031 -63.988281 -42.863281 -61.851562 -42.863281 -59.214844 C -42.863281 -58.164062 -42.460938 -57.191406 -41.777344 -56.402344 C -41.050781 -55.605469 -40.675781 -54.566406 -40.324219 -53.605469 C -40.152344 -52.507812 -40.324219 -51.414062 -39.285156 -50.972656 C -38.246094 -50.535156 -36.167969 -50.535156 -35.128906 -50.972656 C -34.089844 -51.414062 -34.261719 -52.507812 -34.089844 -53.605469 C -33.855469 -54.664062 -33.136719 -55.570312 -32.566406 -56.480469 Z M -32.566406 -56.480469 "/>
<path style=" stroke:none;fill-rule:evenodd;fill:rgb(0%,0%,0%);fill-opacity:1;" d="M 40 8 L 30 10 L 30 12 L 34 17 L 50 13 L 50 11 L 40 8 Z M 40 8 "/>
<path style="fill-rule:evenodd;fill:rgb(12.156863%,12.156863%,12.156863%);fill-opacity:1;stroke-width:1;stroke-linecap:round;stroke-linejoin:miter;stroke:rgb(20%,20%,20%);stroke-opacity:1;stroke-miterlimit:4;" d="M 6 14 L 6 20 " transform="matrix(1,0,0,1,30,0)"/>
<path style="fill-rule:evenodd;fill:rgb(12.156863%,12.156863%,12.156863%);fill-opacity:1;stroke-width:1;stroke-linecap:round;stroke-linejoin:miter;stroke:rgb(20%,20%,20%);stroke-opacity:1;stroke-miterlimit:4;" d="M 10 13 L 10 19 " transform="matrix(1,0,0,1,30,0)"/>
<path style="fill-rule:evenodd;fill:rgb(12.156863%,12.156863%,12.156863%);fill-opacity:1;stroke-width:1;stroke-linecap:round;stroke-linejoin:miter;stroke:rgb(20%,20%,20%);stroke-opacity:1;stroke-miterlimit:4;" d="M 14 12 L 14 18 " transform="matrix(1,0,0,1,30,0)"/>
<path style="fill-rule:evenodd;fill:rgb(12.156863%,12.156863%,12.156863%);fill-opacity:1;stroke-width:1;stroke-linecap:round;stroke-linejoin:miter;stroke:rgb(20%,20%,20%);stroke-opacity:1;stroke-miterlimit:4;" d="M 18 11 L 18 17 " transform="matrix(1,0,0,1,30,0)"/>
<path style="fill-rule:evenodd;fill:rgb(12.156863%,12.156863%,12.156863%);fill-opacity:1;stroke-width:1;stroke-linecap:round;stroke-linejoin:miter;stroke:rgb(20%,20%,20%);stroke-opacity:1;stroke-miterlimit:4;" d="M 1 11.148438 L 1 16.089844 " transform="matrix(1,0,0,1,30,0)"/>
<path style="fill-rule:evenodd;fill:rgb(12.156863%,12.156863%,12.156863%);fill-opacity:1;stroke-width:1;stroke-linecap:round;stroke-linejoin:miter;stroke:rgb(20%,20%,20%);stroke-opacity:1;stroke-miterlimit:4;" d="M 3 12.796875 L 3 18.796875 " transform="matrix(1,0,0,1,30,0)"/>
<path style=" stroke:none;fill-rule:evenodd;fill:rgb(16.078431%,16.078431%,16.078431%);fill-opacity:1;" d="M 40 8 L 30 10 L 30 11 L 34 16 L 50 12 L 50 11 L 40 8 Z M 40 8 "/>
<path style=" stroke:none;fill-rule:evenodd;fill:url(#radial1);" d="M 30 10 L 40 8 L 50 11 L 34 15 L 30 10 Z M 30 10 "/>
<path style="fill:none;stroke-width:1;stroke-linecap:butt;stroke-linejoin:miter;stroke:rgb(75.686275%,75.686275%,75.686275%);stroke-opacity:1;stroke-miterlimit:4;" d="M 41 19 L 41 23 L 49 23 L 49 19 L 41 19 Z M 41 19 "/>
<path style="fill:none;stroke-width:1;stroke-linecap:butt;stroke-linejoin:miter;stroke:rgb(75.686275%,75.686275%,75.686275%);stroke-opacity:1;stroke-miterlimit:4;" d="M 41 15 L 41 19 L 49 19 L 49 15 L 41 15 Z M 41 15 "/>
<path style="fill-rule:evenodd;fill:rgb(0%,100%,0%);fill-opacity:1;stroke-width:1;stroke-linecap:butt;stroke-linejoin:miter;stroke:rgb(37.254902%,75.294118%,37.254902%);stroke-opacity:1;stroke-miterlimit:4;" d="M 41 23 L 41 27 L 49 27 L 49 23 L 41 23 Z M 41 23 "/>
<path style="fill-rule:evenodd;fill:rgb(32.54902%,17.647059%,17.647059%);fill-opacity:1;stroke-width:0.5;stroke-linecap:round;stroke-linejoin:miter;stroke:rgb(14.117647%,4.313725%,4.313725%);stroke-opacity:1;stroke-miterlimit:4;" d="M 14 5 C 14 7.210938 12.210938 9 10 9 C 7.789062 9 6 7.210938 6 5 C 6 2.789062 7.789062 1 10 1 C 12.210938 1 14 2.789062 14 5 Z M 14 5 " transform="matrix(1,0,0,1,0,1)"/>
<path style="fill-rule:nonzero;fill:rgb(0%,0%,0%);fill-opacity:1;stroke-width:0.5;stroke-linecap:round;stroke-linejoin:miter;stroke:rgb(1.176471%,1.176471%,0.392157%);stroke-opacity:1;stroke-miterlimit:4;" d="M 15 6 C 15 8.761719 15 2 10 2 C 5 2 5 8.761719 5 6 C 5 3.238281 7.238281 1 10 1 C 12.761719 1 15 3.238281 15 6 Z M 15 6 "/>
<path style="fill-rule:evenodd;fill:url(#radial2);stroke-width:0.5;stroke-linecap:round;stroke-linejoin:miter;stroke:rgb(30.588235%,72.156863%,29.019608%);stroke-opacity:1;stroke-miterlimit:4;" d="M 14 5 C 14 7.210938 12.210938 9 10 9 C 7.789062 9 6 7.210938 6 5 C 6 2.789062 7.789062 1 10 1 C 12.210938 1 14 2.789062 14 5 Z M 14 5 " transform="matrix(1,0,0,1,0,10)"/>
<path style="fill-rule:nonzero;fill:rgb(0%,0%,0%);fill-opacity:1;stroke-width:0.5;stroke-linecap:round;stroke-linejoin:miter;stroke:rgb(1.176471%,1.176471%,0.392157%);stroke-opacity:1;stroke-miterlimit:4;" d="M 15 15 C 15 17.761719 15 11 10 11 C 5 11 5 17.761719 5 15 C 5 12.238281 7.238281 10 10 10 C 12.761719 10 15 12.238281 15 15 Z M 15 15 "/>
</g>
</svg>
