<?xml version="1.0" encoding="UTF-8"?>
<svg xmlns="http://www.w3.org/2000/svg" xmlns:xlink="http://www.w3.org/1999/xlink" width="20pt" height="20pt" viewBox="0 0 20 20" version="1.1">
<defs>
<radialGradient id="radial0" gradientUnits="userSpaceOnUse" cx="5.035156" cy="6.644531" fx="5.035156" fy="6.644531" r="6.25" gradientTransform="matrix(1.44,0.0000000752929,-0.000000093872,1.44,2.747059,-3.565519)">
<stop offset="0" style="stop-color:rgb(100%,100%,100%);stop-opacity:1;"/>
<stop offset="1" style="stop-color:rgb(43.529412%,43.529412%,43.529412%);stop-opacity:1;"/>
</radialGradient>
<radialGradient id="radial1" gradientUnits="userSpaceOnUse" cx="13.488281" cy="1.808594" fx="13.488281" fy="1.808594" r="4.25" gradientTransform="matrix(0.941176,0.941176,-0.470588,0.470588,0.157842,-10.545474)">
<stop offset="0" style="stop-color:rgb(100%,92.941176%,92.941176%);stop-opacity:1;"/>
<stop offset="1" style="stop-color:rgb(100%,0%,0%);stop-opacity:1;"/>
</radialGradient>
</defs>
<g id="surface0">
<path style="fill-rule:evenodd;fill:url(#radial0);stroke-width:0.5;stroke-linecap:round;stroke-linejoin:miter;stroke:rgb(28.627451%,28.627451%,28.627451%);stroke-opacity:1;stroke-miterlimit:4;" d="M 4 0.25 L 16 0.25 L 16 19.75 L 4 19.75 L 4 0.25 Z M 4 0.25 "/>
<path style="fill-rule:nonzero;fill:rgb(90.980392%,19.607843%,19.607843%);fill-opacity:1;stroke-width:0.5;stroke-linecap:butt;stroke-linejoin:miter;stroke:rgb(66.27451%,64.705882%,63.529412%);stroke-opacity:1;stroke-miterlimit:4;" d="M 10 -79.5 L 29.5 -79.5 L 29.5 -60 L 10 -60 L 10 -79.5 Z M 10 -79.5 "/>
<path style=" stroke:none;fill-rule:nonzero;fill:rgb(0%,0%,0%);fill-opacity:1;" d="M -30 -55 C -28.019531 -55.863281 -25.960938 -56.21875 -23.667969 -55 L -23.667969 -51.070312 C -26.050781 -49.636719 -28.082031 -50.054688 -30 -51.070312 L -30 -55 Z M -30 -55 "/>
<path style="fill:none;stroke-width:0.955068;stroke-linecap:butt;stroke-linejoin:miter;stroke:rgb(0%,0%,0%);stroke-opacity:1;stroke-miterlimit:4;" d="M -32.566406 -56.480469 C -31.925781 -57.257812 -31.550781 -58.199219 -31.550781 -59.214844 C -31.550781 -61.851562 -34.082031 -63.988281 -37.207031 -63.988281 C -40.332031 -63.988281 -42.863281 -61.851562 -42.863281 -59.214844 C -42.863281 -58.164062 -42.460938 -57.191406 -41.777344 -56.402344 C -41.050781 -55.605469 -40.675781 -54.566406 -40.324219 -53.605469 C -40.152344 -52.507812 -40.324219 -51.414062 -39.285156 -50.972656 C -38.246094 -50.535156 -36.167969 -50.535156 -35.128906 -50.972656 C -34.089844 -51.414062 -34.261719 -52.507812 -34.089844 -53.605469 C -33.855469 -54.664062 -33.136719 -55.570312 -32.566406 -56.480469 Z M -32.566406 -56.480469 "/>
<path style="fill-rule:evenodd;fill:url(#radial1);stroke-width:0.5;stroke-linecap:round;stroke-linejoin:miter;stroke:rgb(72.156863%,29.019608%,29.019608%);stroke-opacity:1;stroke-miterlimit:4;" d="M 14 5 C 14 7.210938 12.210938 9 10 9 C 7.789062 9 6 7.210938 6 5 C 6 2.789062 7.789062 1 10 1 C 12.210938 1 14 2.789062 14 5 Z M 14 5 " transform="matrix(1,0,0,1,0,1)"/>
<path style="fill-rule:nonzero;fill:rgb(0%,0%,0%);fill-opacity:1;stroke-width:0.5;stroke-linecap:round;stroke-linejoin:miter;stroke:rgb(1.176471%,1.176471%,0.392157%);stroke-opacity:1;stroke-miterlimit:4;" d="M 15 6 C 15 8.761719 15 2 10 2 C 5 2 5 8.761719 5 6 C 5 3.238281 7.238281 1 10 1 C 12.761719 1 15 3.238281 15 6 Z M 15 6 "/>
<path style="fill-rule:evenodd;fill:rgb(14.901961%,23.921569%,16.470588%);fill-opacity:1;stroke-width:0.5;stroke-linecap:round;stroke-linejoin:miter;stroke:rgb(3.137255%,8.627451%,2.745098%);stroke-opacity:1;stroke-miterlimit:4;" d="M 14 5 C 14 7.210938 12.210938 9 10 9 C 7.789062 9 6 7.210938 6 5 C 6 2.789062 7.789062 1 10 1 C 12.210938 1 14 2.789062 14 5 Z M 14 5 " transform="matrix(1,0,0,1,0,10)"/>
<path style="fill-rule:nonzero;fill:rgb(0%,0%,0%);fill-opacity:1;stroke-width:0.5;stroke-linecap:round;stroke-linejoin:miter;stroke:rgb(1.176471%,1.176471%,0.392157%);stroke-opacity:1;stroke-miterlimit:4;" d="M 15 15 C 15 17.761719 15 11 10 11 C 5 11 5 17.761719 5 15 C 5 12.238281 7.238281 10 10 10 C 12.761719 10 15 12.238281 15 15 Z M 15 15 "/>
</g>
</svg>
