<?xml version="1.0" encoding="UTF-8" standalone="no"?>
<!-- Created with Inkscape (http://www.inkscape.org/) -->

<svg
   xmlns:dc="http://purl.org/dc/elements/1.1/"
   xmlns:cc="http://creativecommons.org/ns#"
   xmlns:rdf="http://www.w3.org/1999/02/22-rdf-syntax-ns#"
   xmlns:svg="http://www.w3.org/2000/svg"
   xmlns="http://www.w3.org/2000/svg"
   xmlns:xlink="http://www.w3.org/1999/xlink"
   xmlns:sodipodi="http://sodipodi.sourceforge.net/DTD/sodipodi-0.dtd"
   xmlns:inkscape="http://www.inkscape.org/namespaces/inkscape"
   version="1.0"
   width="40"
   height="20.000956"
   id="svg1307"
   sodipodi:version="0.32"
   inkscape:version="0.47 r22583"
   sodipodi:docname="temperature 0.svg">
  <metadata
     id="metadata1313">
    <rdf:RDF>
      <cc:Work
         rdf:about="">
        <dc:format>image/svg+xml</dc:format>
        <dc:type
           rdf:resource="http://purl.org/dc/dcmitype/StillImage" />
      </cc:Work>
    </rdf:RDF>
  </metadata>
  <sodipodi:namedview
     inkscape:window-height="1147"
     inkscape:window-width="1920"
     inkscape:pageshadow="2"
     inkscape:pageopacity="0.0"
     borderopacity="1.0"
     bordercolor="#666666"
     pagecolor="#ffffff"
     id="base"
     inkscape:zoom="5.6568543"
     inkscape:cx="-36.053899"
     inkscape:cy="-4.8474813"
     inkscape:window-x="0"
     inkscape:window-y="0"
     inkscape:current-layer="svg1307"
     showgrid="true"
     showguides="true"
     inkscape:guide-bbox="true"
     inkscape:window-maximized="1" />
  <defs
     id="defs1309">
    <inkscape:perspective
       sodipodi:type="inkscape:persp3d"
       inkscape:vp_x="0 : 10.000478 : 1"
       inkscape:vp_y="0 : 1000 : 0"
       inkscape:vp_z="40 : 10.000478 : 1"
       inkscape:persp3d-origin="20 : 6.6669852 : 1"
       id="perspective13" />
    <linearGradient
       id="linearGradient3617">
      <stop
         style="stop-color:#ebebeb;stop-opacity:1;"
         offset="0"
         id="stop3619" />
      <stop
         style="stop-color:#f0f0f0;stop-opacity:1;"
         offset="1"
         id="stop3621" />
    </linearGradient>
    <linearGradient
       inkscape:collect="always"
       xlink:href="#linearGradient3617"
       id="linearGradient3623"
       x1="26.236843"
       y1="16.198324"
       x2="26.101694"
       y2="3.3035872"
       gradientUnits="userSpaceOnUse" />
    <inkscape:perspective
       id="perspective2971"
       inkscape:persp3d-origin="0.5 : 0.33333333 : 1"
       inkscape:vp_z="1 : 0.5 : 1"
       inkscape:vp_y="0 : 1000 : 0"
       inkscape:vp_x="0 : 0.5 : 1"
       sodipodi:type="inkscape:persp3d" />
  </defs>
  <a
     id="a3071"
     transform="matrix(0.38382807,0,0,0.56375428,4.5256973,1.6471076)" />
  <path
     id="path2819"
     transform="matrix(0.84444444,0,0,0.7755102,2.0944444,2.4389901)"
     style="fill:url(#linearGradient3623);stroke:#000000;stroke-width:1.23572178;stroke-linecap:round;stroke-linejoin:round;stroke-miterlimit:4;stroke-opacity:1;fill-opacity:1;stroke-dasharray:none"
     d="m 9.5932624,6.8496402 30.9281196,-5e-7 c 0,0 3.774671,-0.2228669 3.774671,2.9013158 0,3.1241825 -3.774671,2.9013165 -3.774671,2.9013165 l -30.944149,0 0,0 C 8.626558,14.568343 6.7653873,15.875956 4.625,15.875956 1.5183983,15.875956 -1,13.1337 -1,9.7509556 c 0,-3.3827441 2.5183983,-6.125 5.625,-6.125 2.1524826,0 4.022584,1.2898256 4.9682624,3.2236846"
     sodipodi:nodetypes="cczcccsssc" />
  <path
     id="rect2840"
     style="fill:#ffffff;stroke:none;stroke-width:0.50000000000000000;stroke-linecap:round;stroke-linejoin:round;stroke-miterlimit:4;stroke-opacity:1;fill-opacity:1;stroke-dasharray:none"
     d="m 7.9990001,9.0004778 15.5009999,0 0,2.0000002 -15.5009999,0 m 0.017004,7.12e-4 C 7.6477834,11.741922 6.8833373,12.250955 6,12.250955 c -1.2426407,0 -2.25,-1.007359 -2.25,-2.25 0,-1.2426401 1.0073593,-2.2499993 2.25,-2.2499993 0.8708986,0 1.6262309,0.4947986 2.0002136,1.2186127"
     sodipodi:nodetypes="cccccsssc" />
  <g
     id="g2837"
     style="stroke:#d00000;stroke-width:1.52926624;stroke-miterlimit:4;stroke-opacity:1;stroke-dasharray:none"
     transform="matrix(0.90193787,0,0,0.47408603,67.029406,6.6502118)">
    <path
       id="path2813"
       d="m -60.288559,-2.390253 c 18.678813,18.949998 18.678813,18.949998 18.678813,18.949998"
       style="fill:none;stroke:#d00000;stroke-width:1.52926624;stroke-linecap:butt;stroke-linejoin:miter;stroke-miterlimit:4;stroke-opacity:1;stroke-dasharray:none" />
    <path
       id="path2813-1"
       d="M -41.779238,-2.4241513 C -60.458051,16.525847 -60.458051,16.525847 -60.458051,16.525847"
       style="fill:none;stroke:#d00000;stroke-width:1.52926624;stroke-linecap:butt;stroke-linejoin:miter;stroke-miterlimit:4;stroke-opacity:1;stroke-dasharray:none" />
  </g>
</svg>
